<svg xmlns="http://www.w3.org/2000/svg" viewBox="0 0 128 128">
  <defs>
    <linearGradient id="bg" x1="0" y1="0" x2="1" y2="1">
      <stop offset="0%" stop-color="#f5a623"/>
      <stop offset="100%" stop-color="#d4891a"/>
    </linearGradient>
  </defs>
  <rect x="4" y="4" width="120" height="120" rx="28" fill="url(#bg)"/>
  <!-- Picture frame -->
  <rect x="28" y="24" width="72" height="56" rx="6" fill="white" opacity="0.9"/>
  <rect x="34" y="30" width="60" height="44" rx="3" fill="#f5a623" opacity="0.2"/>
  <!-- Mountain/landscape in frame -->
  <polygon points="34,74 54,50 64,60 84,40 94,74" fill="#4caf50" opacity="0.5"/>
  <circle cx="80" cy="42" r="6" fill="#ffeb3b" opacity="0.7"/>
  <!-- Schedule/timeline below -->
  <rect x="28" y="88" width="16" height="16" rx="4" fill="white" opacity="0.85"/>
  <rect x="48" y="88" width="16" height="16" rx="4" fill="white" opacity="0.85"/>
  <rect x="68" y="88" width="16" height="16" rx="4" fill="white" opacity="0.85"/>
  <!-- Arrow connecting schedule items -->
  <line x1="44" y1="96" x2="48" y2="96" stroke="white" stroke-width="2" opacity="0.6"/>
  <line x1="64" y1="96" x2="68" y2="96" stroke="white" stroke-width="2" opacity="0.6"/>
  <!-- Accessibility hint: eye -->
  <circle cx="96" cy="96" r="12" fill="white" opacity="0.3"/>
  <circle cx="96" cy="96" r="6" fill="white" opacity="0.6"/>
  <circle cx="96" cy="96" r="3" fill="#d4891a"/>
</svg>
